<?xml version="1.0" encoding="UTF-8"?>
<svg xmlns="http://www.w3.org/2000/svg" xmlns:xlink="http://www.w3.org/1999/xlink" width="240px" height="80px" viewBox="0 0 240 80" version="1.1">
<defs>
<clipPath id="clip1">
  <path d="M 0 0.0742188 L 240 0.0742188 L 240 79.925781 L 0 79.925781 Z M 0 0.0742188 "/>
</clipPath>
<clipPath id="clip2">
  <path d="M 19 0.0742188 L 38 0.0742188 L 38 18 L 19 18 Z M 19 0.0742188 "/>
</clipPath>
<clipPath id="clip3">
  <path d="M 95 0.0742188 L 102 0.0742188 L 102 18 L 95 18 Z M 95 0.0742188 "/>
</clipPath>
</defs>
<g id="surface1">
<g clip-path="url(#clip1)" clip-rule="nonzero">
<path style=" stroke:none;fill-rule:nonzero;fill:rgb(84.705882%,66.666667%,37.647059%);fill-opacity:1;" d="M 83.707031 62.890625 C 79.28125 68.351562 73.757812 72.820312 67.492188 76.007812 C 65.652344 76.953125 64.054688 77.375 62.710938 77.375 C 61.640625 77.375 61.101562 76.835938 61.101562 75.6875 C 61.101562 71.136719 69.761719 62.691406 87.085938 50.347656 L 91.128906 47.453125 C 90.007812 53.148438 87.457031 58.460938 83.707031 62.890625 M 237.679688 45.089844 C 228.738281 40.925781 214.207031 37.640625 191.171875 37.640625 C 163.949219 37.640625 130.726562 52.355469 126.714844 53.722656 C 126.246094 53.921875 125.769531 54.101562 125.328125 54.28125 C 121.644531 55.730469 117.832031 56.820312 113.941406 57.539062 C 109.464844 58.304688 106.601562 57.539062 105.335938 55.199219 C 104.808594 53.832031 104.867188 52.066406 105.5625 49.867188 C 106.210938 47.675781 107.066406 45.550781 108.109375 43.519531 C 109.222656 41.378906 110.175781 39.707031 110.960938 38.480469 C 112.691406 35.835938 114.636719 33.335938 116.777344 31.007812 C 116.976562 30.78125 117.1875 30.539062 117.40625 30.3125 C 119.789062 27.738281 122.078125 25.714844 124.265625 24.269531 C 124.308594 24.238281 124.351562 24.210938 124.402344 24.195312 C 126.570312 22.792969 128.226562 22.429688 129.375 23.09375 C 129.855469 23.484375 129.871094 24.132812 129.433594 25.070312 C 128.921875 25.988281 128.335938 26.863281 127.6875 27.691406 C 126.960938 28.566406 126.425781 29.171875 126.089844 29.515625 L 126.089844 29.589844 L 126.015625 29.589844 C 125.230469 30.617188 125.03125 31.613281 125.425781 32.574219 C 125.734375 33.476562 126.476562 34.160156 127.398438 34.398438 C 128.363281 34.746094 129.347656 34.472656 130.308594 33.601562 C 131.929688 31.976562 132.910156 29.824219 133.085938 27.539062 C 133.234375 25.265625 132.238281 23.367188 130.097656 21.871094 C 127.839844 20.617188 125.152344 20.402344 122.726562 21.28125 C 120.292969 22.058594 118.019531 23.269531 116.015625 24.855469 C 113.007812 27.242188 110.3125 30.003906 108 33.070312 L 95.621094 41.300781 C 95.199219 37.878906 93.828125 35.449219 91.527344 33.988281 C 89.226562 32.527344 87.066406 31.804688 85.078125 31.785156 C 83.085938 31.765625 81.820312 31.722656 81.246094 31.722656 C 76.769531 31.722656 71.027344 32.570312 64.015625 34.269531 C 59.292969 35.398438 56.511719 35.972656 55.605469 35.972656 C 54.386719 35.972656 53.78125 35.28125 53.78125 33.847656 C 53.78125 31.363281 55.90625 27.535156 60.160156 22.359375 C 63.710938 18.234375 67.539062 14.355469 71.613281 10.738281 C 76.25 6.558594 80.273438 4.21875 83.707031 3.8125 C 87.023438 3.8125 88.699219 5.621094 88.699219 9.242188 C 88.699219 10.867188 87.972656 13.070312 86.585938 15.855469 C 85.503906 17.890625 84.964844 19.386719 84.964844 20.289062 C 84.964844 21.664062 85.539062 22.339844 86.6875 22.339844 C 87.664062 22.339844 88.601562 21.875 89.503906 20.9375 C 90.429688 19.9375 91.121094 18.742188 91.523438 17.441406 C 91.949219 16.121094 92.253906 14.761719 92.429688 13.386719 L 92.535156 11.773438 C 92.535156 8.589844 91.539062 5.847656 89.550781 3.601562 C 87.199219 1.25 84.5 0.0742188 81.453125 0.0742188 C 78.109375 0.0742188 74.457031 1.140625 70.496094 3.269531 C 67.421875 5.019531 59.734375 11.664062 53.628906 18.929688 C 51.320312 20.667969 48.941406 22.1875 46.363281 23.167969 C 44.191406 24.039062 41.898438 24.578125 39.5625 24.765625 C 37.242188 24.945312 34.753906 25.023438 32.601562 24.632812 C 28.121094 23.859375 23.523438 21.585938 18.15625 20.710938 C 15.417969 20.199219 12.625 20.074219 9.851562 20.347656 C 7.0625 20.691406 4.335938 21.414062 1.742188 22.492188 C 0.304688 23.035156 -0.417969 24.640625 0.125 26.074219 C 0.667969 27.511719 2.273438 28.234375 3.710938 27.691406 L 3.90625 27.613281 C 8.207031 26.042969 12.832031 25.5625 17.367188 26.214844 C 19.660156 26.558594 21.996094 27.089844 24.4375 27.613281 C 26.878906 28.140625 29.398438 28.761719 32.125 28.988281 C 33.476562 29.089844 34.832031 29.082031 36.179688 28.960938 C 37.476562 28.851562 38.789062 28.703125 40.085938 28.460938 C 42.726562 27.996094 45.265625 27.09375 47.609375 25.792969 C 48.164062 25.476562 48.707031 25.128906 49.21875 24.785156 C 45.480469 30.433594 43.6875 35.773438 46.730469 38.816406 C 48.101562 40.234375 49.996094 41.011719 51.964844 40.972656 C 55.144531 40.972656 60.011719 39.960938 66.539062 37.972656 L 74.53125 35.847656 C 76.777344 35.441406 79.058594 35.226562 81.34375 35.199219 C 84.886719 35.199219 87.417969 35.921875 88.902344 37.351562 C 90.390625 38.78125 91.132812 40.894531 91.132812 43.746094 L 91.132812 44.90625 C 90.875 45.238281 87.632812 47.621094 81.453125 52.019531 C 75.984375 55.882812 72.007812 58.777344 69.515625 60.765625 C 62.296875 66.597656 58.679688 71.621094 58.679688 75.882812 C 58.679688 78.582031 60.199219 79.925781 63.261719 79.925781 C 64.972656 79.875 66.664062 79.507812 68.242188 78.839844 C 75.78125 75.949219 82.386719 71.046875 87.339844 64.667969 C 92.363281 58.242188 95.191406 51.273438 95.828125 43.757812 L 104.492188 38.472656 C 103.359375 40.636719 102.46875 42.921875 101.839844 45.285156 C 100.898438 49.550781 101.417969 52.894531 103.363281 55.277344 C 105.304688 57.65625 108.460938 58.894531 112.789062 59 C 117.457031 59.007812 122.101562 58.347656 126.582031 57.039062 C 131.621094 55.667969 167.296875 42.144531 190.421875 42.144531 C 216.183594 42.144531 231.273438 50.019531 236.488281 50.859375 C 239.746094 51.371094 241.84375 47.042969 237.667969 45.101562 "/>
</g>
<g clip-path="url(#clip2)" clip-rule="nonzero">
<path style=" stroke:none;fill-rule:nonzero;fill:rgb(84.705882%,66.666667%,37.647059%);fill-opacity:1;" d="M 24.972656 0.761719 L 24.972656 14.84375 C 24.972656 16.371094 25.71875 17.136719 27.214844 17.132812 L 27.824219 17.132812 C 28.699219 17.144531 29.566406 17.003906 30.394531 16.726562 C 31.195312 16.445312 31.929688 15.996094 32.550781 15.417969 C 33.261719 14.710938 33.789062 13.839844 34.078125 12.882812 C 34.464844 11.636719 34.648438 10.339844 34.621094 9.035156 C 34.621094 6.355469 34.007812 4.308594 32.78125 2.886719 C 31.550781 1.46875 29.578125 0.761719 26.859375 0.761719 Z M 19.828125 17.515625 L 19.828125 17.363281 C 19.828125 17.246094 19.972656 17.15625 20.265625 17.09375 C 20.554688 17.035156 20.867188 16.980469 21.207031 16.917969 C 21.601562 16.824219 21.9375 16.582031 22.152344 16.242188 C 22.46875 15.75 22.617188 15.171875 22.578125 14.589844 L 22.578125 2.976562 C 22.609375 2.464844 22.457031 1.957031 22.148438 1.550781 C 21.910156 1.246094 21.578125 1.035156 21.203125 0.949219 L 20.257812 0.789062 C 19.96875 0.734375 19.824219 0.652344 19.824219 0.53125 L 19.824219 0.351562 L 27.109375 0.351562 C 28.863281 0.324219 30.605469 0.625 32.246094 1.242188 C 35.382812 2.441406 37.40625 5.503906 37.285156 8.859375 C 37.28125 9.570312 37.203125 10.28125 37.042969 10.972656 C 36.855469 11.769531 36.554688 12.539062 36.148438 13.253906 C 35.703125 14.050781 35.125 14.769531 34.441406 15.378906 C 33.621094 16.0625 32.675781 16.582031 31.65625 16.90625 C 30.375 17.332031 29.03125 17.535156 27.679688 17.515625 Z M 19.828125 17.515625 "/>
</g>
<path style=" stroke:none;fill-rule:nonzero;fill:rgb(84.705882%,66.666667%,37.647059%);fill-opacity:1;" d="M 41.503906 15.480469 L 41.503906 8.449219 C 41.527344 8.070312 41.417969 7.699219 41.1875 7.394531 C 41.015625 7.167969 40.757812 7.023438 40.472656 6.988281 C 40.234375 6.964844 39.996094 6.925781 39.757812 6.871094 C 39.546875 6.820312 39.445312 6.738281 39.445312 6.617188 L 39.445312 6.492188 L 43.339844 6.109375 L 43.441406 6.210938 L 43.289062 8.628906 L 43.390625 8.65625 C 44.324219 6.957031 45.433594 6.109375 46.726562 6.109375 C 47.140625 6.101562 47.546875 6.226562 47.882812 6.464844 C 48.164062 6.675781 48.34375 6.992188 48.375 7.339844 C 48.40625 7.6875 48.289062 8.03125 48.050781 8.285156 C 47.824219 8.5 47.523438 8.613281 47.210938 8.601562 C 46.789062 8.59375 46.386719 8.414062 46.101562 8.105469 C 45.769531 7.769531 45.589844 7.3125 45.609375 6.84375 C 44.859375 7.054688 44.195312 7.757812 43.621094 8.957031 L 43.621094 15.601562 C 43.59375 15.972656 43.722656 16.339844 43.976562 16.609375 C 44.1875 16.824219 44.464844 16.960938 44.761719 16.992188 C 45.027344 17.011719 45.292969 17.050781 45.554688 17.105469 C 45.792969 17.160156 45.910156 17.242188 45.910156 17.359375 L 45.910156 17.515625 L 39.511719 17.515625 L 39.511719 17.363281 C 39.511719 17.242188 39.679688 17.171875 40.011719 17.148438 C 40.371094 17.109375 40.710938 16.976562 41.003906 16.765625 C 41.332031 16.539062 41.5 16.105469 41.5 15.480469 "/>
<path style=" stroke:none;fill-rule:nonzero;fill:rgb(84.705882%,66.666667%,37.647059%);fill-opacity:1;" d="M 48.042969 17.132812 C 47.789062 16.882812 47.652344 16.542969 47.660156 16.1875 C 47.660156 15.835938 47.796875 15.496094 48.042969 15.242188 C 48.289062 14.984375 48.628906 14.839844 48.988281 14.851562 C 49.339844 14.847656 49.679688 14.984375 49.933594 15.230469 C 50.191406 15.484375 50.332031 15.832031 50.324219 16.191406 C 50.332031 16.546875 50.1875 16.890625 49.929688 17.136719 C 49.675781 17.386719 49.335938 17.523438 48.984375 17.519531 C 48.628906 17.527344 48.289062 17.390625 48.039062 17.136719 "/>
<g clip-path="url(#clip3)" clip-rule="nonzero">
<path style=" stroke:none;fill-rule:nonzero;fill:rgb(84.705882%,66.666667%,37.647059%);fill-opacity:1;" d="M 97.363281 0.761719 C 97.910156 0.21875 98.796875 0.21875 99.347656 0.761719 C 99.617188 1.011719 99.769531 1.363281 99.769531 1.730469 C 99.773438 2.105469 99.628906 2.46875 99.363281 2.734375 C 99.105469 3.003906 98.746094 3.15625 98.371094 3.15625 C 97.996094 3.15625 97.636719 3.003906 97.378906 2.734375 C 97.109375 2.46875 96.964844 2.105469 96.96875 1.730469 C 96.964844 1.363281 97.113281 1.011719 97.378906 0.761719 M 97.480469 15.480469 L 97.480469 8.578125 C 97.503906 8.179688 97.394531 7.785156 97.164062 7.457031 C 97.007812 7.226562 96.761719 7.074219 96.484375 7.03125 C 96.238281 7.003906 96.011719 6.972656 95.808594 6.929688 C 95.601562 6.886719 95.492188 6.804688 95.492188 6.691406 L 95.492188 6.535156 L 99.46875 6.105469 L 99.566406 6.203125 L 99.566406 15.605469 C 99.539062 15.972656 99.664062 16.339844 99.910156 16.613281 C 100.105469 16.824219 100.367188 16.957031 100.652344 16.996094 C 100.898438 17.019531 101.144531 17.054688 101.386719 17.109375 C 101.617188 17.160156 101.730469 17.242188 101.730469 17.363281 L 101.730469 17.515625 L 95.527344 17.515625 L 95.527344 17.363281 C 95.527344 17.242188 95.6875 17.171875 96.011719 17.148438 C 96.363281 17.109375 96.695312 16.976562 96.980469 16.765625 C 97.292969 16.539062 97.464844 16.105469 97.464844 15.480469 "/>
</g>
<path style=" stroke:none;fill-rule:nonzero;fill:rgb(84.705882%,66.666667%,37.647059%);fill-opacity:1;" d="M 113.914062 6.109375 L 114.015625 6.210938 L 114.015625 15.300781 C 113.992188 15.699219 114.101562 16.09375 114.328125 16.421875 C 114.488281 16.648438 114.730469 16.800781 115.003906 16.84375 C 115.230469 16.863281 115.457031 16.898438 115.679688 16.945312 C 115.882812 16.984375 115.996094 17.066406 115.996094 17.1875 L 115.996094 17.339844 L 112.003906 17.773438 L 111.902344 17.667969 L 111.980469 16.09375 L 111.875 16.09375 C 111.082031 17.167969 109.828125 17.804688 108.488281 17.800781 C 107.597656 17.832031 106.722656 17.546875 106.019531 16.996094 C 105.355469 16.460938 105.027344 15.601562 105.027344 14.410156 L 105.027344 8.578125 C 105.050781 8.183594 104.949219 7.789062 104.734375 7.457031 C 104.585938 7.230469 104.351562 7.074219 104.085938 7.03125 C 103.847656 7.003906 103.628906 6.972656 103.433594 6.933594 C 103.238281 6.890625 103.140625 6.804688 103.140625 6.6875 L 103.140625 6.535156 L 107.039062 6.105469 L 107.140625 6.203125 L 107.140625 14.90625 C 107.097656 15.539062 107.289062 16.164062 107.675781 16.664062 C 108.050781 17.078125 108.59375 17.304688 109.152344 17.273438 C 110.273438 17.273438 111.1875 16.65625 111.902344 15.417969 L 111.902344 8.578125 C 111.929688 8.183594 111.824219 7.789062 111.609375 7.457031 C 111.460938 7.230469 111.226562 7.074219 110.960938 7.03125 C 110.71875 7.003906 110.507812 6.972656 110.3125 6.933594 C 110.117188 6.890625 110.019531 6.804688 110.019531 6.6875 L 110.019531 6.535156 Z M 113.914062 6.109375 "/>
<path style=" stroke:none;fill-rule:nonzero;fill:rgb(84.705882%,66.666667%,37.647059%);fill-opacity:1;" d="M 124.648438 6.796875 L 123.171875 6.796875 C 121.59375 6.796875 120.488281 6.980469 119.863281 7.34375 C 119.234375 7.710938 118.707031 8.535156 118.289062 9.828125 C 118.238281 10.015625 118.144531 10.105469 118.011719 10.105469 L 117.882812 10.105469 C 118.152344 8.308594 118.347656 6.957031 118.46875 6.054688 C 119.761719 6.339844 121.089844 6.46875 122.414062 6.441406 L 127.050781 6.441406 L 127.050781 6.769531 L 124.78125 10.054688 L 122.097656 13.902344 C 121.121094 15.308594 120.371094 16.394531 119.847656 17.160156 L 122.445312 17.160156 C 123.246094 17.199219 124.039062 17.054688 124.777344 16.738281 C 125.292969 16.5 125.730469 16.113281 126.035156 15.632812 C 126.4375 14.914062 126.773438 14.164062 127.042969 13.390625 C 127.160156 13.171875 127.253906 13.078125 127.324219 13.078125 L 127.476562 13.101562 L 126.6875 17.890625 C 125.824219 17.648438 124.25 17.53125 121.964844 17.53125 L 117.238281 17.53125 L 117.238281 17.21875 Z M 124.648438 6.796875 "/>
<path style=" stroke:none;fill-rule:nonzero;fill:rgb(84.705882%,66.666667%,37.647059%);fill-opacity:1;" d="M 132.90625 17.210938 C 133.511719 17.203125 134.105469 17.042969 134.628906 16.738281 C 135.160156 16.457031 135.617188 16.050781 135.964844 15.554688 L 135.964844 11.507812 C 135.648438 11.472656 135.335938 11.453125 135.019531 11.453125 C 133.660156 11.453125 132.664062 11.757812 132.027344 12.359375 C 131.378906 13 131.035156 13.882812 131.082031 14.792969 C 131.082031 16.40625 131.691406 17.210938 132.914062 17.210938 M 133.859375 6.109375 C 135.386719 6.109375 136.472656 6.476562 137.117188 7.214844 C 137.777344 7.992188 138.121094 8.988281 138.085938 10.007812 L 138.085938 15.535156 C 138.085938 16.199219 138.171875 16.628906 138.339844 16.820312 C 138.511719 17.011719 138.921875 17.136719 139.5625 17.136719 L 139.589844 17.390625 C 139.035156 17.636719 138.4375 17.769531 137.832031 17.777344 C 137.367188 17.808594 136.902344 17.683594 136.511719 17.425781 C 136.195312 17.191406 136.03125 16.75 136.015625 16.101562 L 135.914062 16.101562 C 134.882812 17.226562 133.417969 17.84375 131.894531 17.796875 C 131.109375 17.820312 130.339844 17.5625 129.726562 17.070312 C 129.128906 16.574219 128.796875 15.824219 128.835938 15.046875 C 128.820312 14.378906 128.996094 13.722656 129.347656 13.15625 C 129.683594 12.625 130.160156 12.199219 130.722656 11.921875 C 131.300781 11.628906 131.917969 11.414062 132.554688 11.289062 C 133.226562 11.160156 133.90625 11.09375 134.589844 11.097656 C 135.050781 11.097656 135.507812 11.125 135.964844 11.175781 L 135.964844 9.519531 C 135.964844 7.484375 135.179688 6.464844 133.601562 6.464844 C 132.765625 6.433594 131.945312 6.695312 131.28125 7.203125 C 131.816406 7.554688 132.117188 8.167969 132.070312 8.804688 C 132.085938 9.160156 131.964844 9.503906 131.738281 9.777344 C 131.492188 10.042969 131.136719 10.183594 130.773438 10.15625 C 130.476562 10.164062 130.195312 10.039062 130.003906 9.8125 C 129.800781 9.585938 129.6875 9.292969 129.6875 8.984375 C 129.6875 8.339844 130.035156 7.699219 130.722656 7.0625 C 131.410156 6.429688 132.449219 6.121094 133.839844 6.121094 "/>
<path style=" stroke:none;fill-rule:nonzero;fill:rgb(84.705882%,66.666667%,37.647059%);fill-opacity:1;" d="M 151.90625 9.496094 L 151.90625 15.554688 C 151.90625 16.152344 152.074219 16.554688 152.414062 16.765625 C 152.71875 16.960938 153.070312 17.082031 153.433594 17.109375 C 153.769531 17.140625 153.941406 17.21875 153.941406 17.355469 L 153.941406 17.507812 L 147.957031 17.507812 L 147.957031 17.363281 C 147.957031 17.246094 148.050781 17.164062 148.25 17.121094 C 148.449219 17.078125 148.652344 17.046875 148.878906 17.019531 C 149.144531 16.96875 149.371094 16.804688 149.507812 16.574219 C 149.726562 16.226562 149.828125 15.816406 149.800781 15.402344 L 149.800781 9.011719 C 149.84375 8.390625 149.652344 7.78125 149.265625 7.292969 C 148.90625 6.890625 148.382812 6.671875 147.839844 6.691406 C 147.253906 6.707031 146.683594 6.878906 146.1875 7.191406 C 145.667969 7.476562 145.246094 7.90625 144.964844 8.425781 L 144.964844 15.554688 C 144.964844 16.152344 145.117188 16.554688 145.433594 16.765625 C 145.714844 16.960938 146.039062 17.082031 146.382812 17.109375 C 146.695312 17.140625 146.855469 17.21875 146.855469 17.355469 L 146.855469 17.507812 L 140.871094 17.507812 L 140.871094 17.363281 C 140.871094 17.246094 140.972656 17.167969 141.183594 17.132812 C 141.398438 17.097656 141.617188 17.070312 141.871094 17.046875 C 142.152344 17.003906 142.40625 16.839844 142.558594 16.601562 C 142.789062 16.246094 142.898438 15.828125 142.875 15.402344 L 142.875 8.609375 C 142.898438 8.210938 142.796875 7.820312 142.582031 7.484375 C 142.429688 7.257812 142.1875 7.109375 141.917969 7.066406 C 141.695312 7.046875 141.476562 7.011719 141.257812 6.964844 C 141.0625 6.921875 140.964844 6.84375 140.964844 6.722656 L 140.964844 6.570312 L 144.785156 6.136719 L 144.886719 6.238281 L 144.730469 8.070312 L 144.835938 8.097656 C 145.628906 6.832031 147.03125 6.078125 148.527344 6.113281 C 149.410156 6.078125 150.277344 6.363281 150.96875 6.914062 C 151.613281 7.449219 151.9375 8.308594 151.941406 9.5 "/>
<path style=" stroke:none;fill-rule:nonzero;fill:rgb(84.705882%,66.666667%,37.647059%);fill-opacity:1;" d="M 165.628906 9.496094 L 165.628906 15.554688 C 165.628906 16.152344 165.796875 16.554688 166.136719 16.765625 C 166.449219 16.964844 166.800781 17.082031 167.167969 17.109375 C 167.503906 17.140625 167.675781 17.21875 167.675781 17.355469 L 167.675781 17.507812 L 161.691406 17.507812 L 161.691406 17.363281 C 161.691406 17.246094 161.789062 17.164062 161.984375 17.121094 C 162.179688 17.078125 162.386719 17.046875 162.613281 17.019531 C 162.878906 16.96875 163.105469 16.804688 163.242188 16.574219 C 163.457031 16.222656 163.558594 15.816406 163.535156 15.402344 L 163.535156 9.011719 C 163.578125 8.390625 163.386719 7.777344 163 7.292969 C 162.636719 6.890625 162.113281 6.671875 161.574219 6.691406 C 160.988281 6.707031 160.414062 6.878906 159.917969 7.191406 C 159.390625 7.472656 158.953125 7.902344 158.664062 8.425781 L 158.664062 15.554688 C 158.664062 16.152344 158.820312 16.554688 159.136719 16.765625 C 159.414062 16.964844 159.742188 17.085938 160.082031 17.121094 C 160.398438 17.148438 160.554688 17.226562 160.554688 17.363281 L 160.554688 17.515625 L 154.570312 17.515625 L 154.570312 17.363281 C 154.570312 17.246094 154.675781 17.167969 154.886719 17.132812 C 155.097656 17.097656 155.316406 17.070312 155.570312 17.046875 C 155.855469 17.003906 156.105469 16.839844 156.257812 16.601562 C 156.488281 16.246094 156.597656 15.828125 156.574219 15.402344 L 156.574219 8.609375 C 156.601562 8.210938 156.496094 7.816406 156.28125 7.484375 C 156.132812 7.257812 155.890625 7.105469 155.617188 7.066406 C 155.398438 7.046875 155.175781 7.011719 154.957031 6.964844 C 154.761719 6.921875 154.664062 6.84375 154.664062 6.722656 L 154.664062 6.570312 L 158.480469 6.136719 L 158.585938 6.238281 L 158.429688 8.070312 L 158.535156 8.097656 C 159.328125 6.832031 160.730469 6.078125 162.226562 6.113281 C 163.101562 6.082031 163.960938 6.367188 164.648438 6.910156 C 165.296875 7.445312 165.617188 8.308594 165.617188 9.496094 "/>
<path style=" stroke:none;fill-rule:nonzero;fill:rgb(84.705882%,66.666667%,37.647059%);fill-opacity:1;" d="M 173.152344 17.210938 C 173.757812 17.203125 174.347656 17.042969 174.871094 16.738281 C 175.40625 16.457031 175.863281 16.050781 176.210938 15.554688 L 176.210938 11.507812 C 175.898438 11.472656 175.582031 11.453125 175.265625 11.453125 C 173.910156 11.453125 172.914062 11.757812 172.277344 12.359375 C 171.628906 12.996094 171.285156 13.882812 171.332031 14.792969 C 171.332031 16.40625 171.941406 17.210938 173.164062 17.210938 M 174.109375 6.109375 C 175.632812 6.109375 176.722656 6.476562 177.367188 7.214844 C 178.027344 7.992188 178.371094 8.988281 178.335938 10.007812 L 178.335938 15.535156 C 178.335938 16.199219 178.417969 16.628906 178.589844 16.820312 C 178.765625 17.011719 179.167969 17.136719 179.8125 17.136719 L 179.839844 17.390625 C 179.285156 17.636719 178.6875 17.769531 178.082031 17.777344 C 177.609375 17.8125 177.136719 17.6875 176.742188 17.425781 C 176.425781 17.191406 176.265625 16.75 176.25 16.101562 L 176.144531 16.101562 C 175.117188 17.230469 173.648438 17.855469 172.121094 17.808594 C 171.335938 17.832031 170.570312 17.574219 169.957031 17.082031 C 169.351562 16.585938 169.015625 15.828125 169.058594 15.046875 C 169.042969 14.378906 169.21875 13.722656 169.566406 13.15625 C 169.902344 12.621094 170.378906 12.191406 170.949219 11.914062 C 171.527344 11.621094 172.144531 11.410156 172.78125 11.285156 C 173.453125 11.152344 174.132812 11.089844 174.816406 11.09375 C 175.277344 11.089844 175.738281 11.117188 176.195312 11.171875 L 176.195312 9.519531 C 176.195312 7.484375 175.40625 6.464844 173.828125 6.464844 C 172.992188 6.433594 172.171875 6.695312 171.507812 7.203125 C 172.039062 7.554688 172.339844 8.167969 172.296875 8.804688 C 172.3125 9.15625 172.203125 9.503906 171.980469 9.777344 C 171.730469 10.042969 171.378906 10.183594 171.015625 10.15625 C 170.714844 10.167969 170.429688 10.042969 170.238281 9.8125 C 170.042969 9.582031 169.9375 9.289062 169.945312 8.984375 C 169.945312 8.339844 170.289062 7.699219 170.976562 7.0625 C 171.664062 6.429688 172.703125 6.117188 174.097656 6.121094 "/>
<path style=" stroke:none;fill-rule:nonzero;fill:rgb(84.705882%,66.666667%,37.647059%);fill-opacity:1;" d="M 140.378906 32.230469 C 140.980469 32.222656 141.574219 32.058594 142.09375 31.757812 C 142.628906 31.472656 143.089844 31.066406 143.433594 30.570312 L 143.433594 26.523438 C 143.121094 26.488281 142.804688 26.472656 142.488281 26.472656 C 141.128906 26.472656 140.132812 26.773438 139.496094 27.375 C 138.851562 28.015625 138.507812 28.898438 138.550781 29.808594 C 138.550781 31.421875 139.164062 32.230469 140.386719 32.230469 M 141.328125 21.125 C 142.855469 21.125 143.941406 21.492188 144.589844 22.230469 C 145.246094 23.007812 145.589844 24.003906 145.554688 25.019531 L 145.554688 30.546875 C 145.554688 31.207031 145.640625 31.636719 145.8125 31.832031 C 145.980469 32.027344 146.386719 32.148438 147.035156 32.148438 L 147.058594 32.402344 C 146.507812 32.648438 145.910156 32.777344 145.304688 32.785156 C 144.839844 32.8125 144.378906 32.6875 143.992188 32.425781 C 143.675781 32.191406 143.511719 31.75 143.492188 31.105469 L 143.394531 31.105469 C 142.363281 32.230469 140.894531 32.851562 139.367188 32.808594 C 138.582031 32.832031 137.816406 32.574219 137.203125 32.082031 C 136.605469 31.585938 136.273438 30.835938 136.3125 30.058594 C 136.296875 29.394531 136.476562 28.738281 136.824219 28.167969 C 137.160156 27.636719 137.636719 27.210938 138.199219 26.933594 C 138.777344 26.640625 139.394531 26.429688 140.03125 26.304688 C 140.703125 26.171875 141.382812 26.109375 142.066406 26.113281 C 142.527344 26.109375 142.988281 26.136719 143.441406 26.191406 L 143.441406 24.535156 C 143.441406 22.496094 142.652344 21.480469 141.074219 21.480469 C 140.242188 21.445312 139.421875 21.707031 138.761719 22.214844 C 139.292969 22.570312 139.59375 23.183594 139.546875 23.820312 C 139.566406 24.171875 139.453125 24.515625 139.230469 24.789062 C 138.984375 25.054688 138.628906 25.195312 138.265625 25.171875 C 137.96875 25.183594 137.679688 25.054688 137.488281 24.828125 C 137.292969 24.597656 137.1875 24.300781 137.195312 24 C 137.195312 23.355469 137.539062 22.714844 138.222656 22.078125 C 138.910156 21.441406 139.953125 21.125 141.34375 21.132812 "/>
<path style=" stroke:none;fill-rule:nonzero;fill:rgb(84.705882%,66.666667%,37.647059%);fill-opacity:1;" d="M 154.359375 21.710938 C 153.90625 21.527344 153.421875 21.441406 152.933594 21.453125 C 152.363281 21.457031 151.808594 21.636719 151.34375 21.964844 C 150.84375 22.304688 150.589844 22.855469 150.589844 23.621094 C 150.609375 24.097656 150.847656 24.535156 151.238281 24.804688 C 151.722656 25.179688 152.257812 25.484375 152.828125 25.710938 C 153.457031 25.964844 154.089844 26.234375 154.71875 26.523438 C 155.332031 26.800781 155.875 27.207031 156.308594 27.71875 C 156.738281 28.214844 156.96875 28.847656 156.957031 29.5 C 156.992188 30.507812 156.46875 31.453125 155.597656 31.960938 C 154.625 32.546875 153.503906 32.84375 152.367188 32.816406 C 151.390625 32.839844 150.425781 32.628906 149.550781 32.203125 C 148.761719 31.792969 148.367188 31.257812 148.367188 30.570312 C 148.351562 30.261719 148.472656 29.957031 148.699219 29.742188 C 148.910156 29.554688 149.179688 29.449219 149.460938 29.449219 C 149.8125 29.441406 150.15625 29.574219 150.40625 29.824219 C 150.667969 30.089844 150.804688 30.453125 150.789062 30.828125 C 150.8125 31.292969 150.6875 31.757812 150.433594 32.148438 C 151.015625 32.410156 151.652344 32.53125 152.289062 32.503906 C 152.972656 32.519531 153.640625 32.296875 154.179688 31.875 C 154.746094 31.417969 155.054688 30.714844 155.007812 29.984375 C 155.003906 29.464844 154.765625 28.976562 154.359375 28.652344 C 153.890625 28.25 153.359375 27.929688 152.785156 27.707031 L 150.9375 26.929688 C 150.347656 26.679688 149.8125 26.320312 149.359375 25.871094 C 148.945312 25.472656 148.710938 24.917969 148.710938 24.34375 C 148.6875 23.441406 149.09375 22.582031 149.804688 22.027344 C 150.535156 21.433594 151.511719 21.136719 152.738281 21.136719 C 153.613281 21.105469 154.480469 21.304688 155.257812 21.707031 C 155.945312 22.089844 156.285156 22.609375 156.285156 23.28125 C 156.304688 23.5625 156.195312 23.835938 155.992188 24.035156 C 155.804688 24.210938 155.554688 24.304688 155.292969 24.300781 C 154.980469 24.304688 154.675781 24.183594 154.453125 23.957031 C 154.203125 23.707031 154.074219 23.363281 154.097656 23.011719 C 154.09375 22.566406 154.183594 22.125 154.351562 21.710938 "/>
<path style=" stroke:none;fill-rule:nonzero;fill:rgb(84.705882%,66.666667%,37.647059%);fill-opacity:1;" d="M 165.050781 32.429688 C 165.871094 32.460938 166.664062 32.15625 167.257812 31.589844 C 167.832031 31.03125 168.246094 30.328125 168.453125 29.554688 C 168.683594 28.664062 168.796875 27.75 168.785156 26.832031 C 168.785156 25.234375 168.46875 23.964844 167.839844 23.023438 C 167.292969 22.121094 166.304688 21.582031 165.253906 21.609375 C 164.640625 21.613281 164.035156 21.75 163.484375 22.015625 C 162.921875 22.269531 162.433594 22.664062 162.070312 23.160156 L 162.070312 31.488281 C 162.941406 32.097656 163.984375 32.429688 165.046875 32.433594 M 171.03125 26.703125 C 171.03125 28.691406 170.515625 30.207031 169.480469 31.25 C 168.445312 32.289062 167.042969 32.816406 165.277344 32.824219 C 164.179688 32.871094 163.09375 32.566406 162.171875 31.960938 L 162.042969 31.984375 L 162.042969 36.082031 C 162.019531 36.457031 162.125 36.832031 162.339844 37.140625 C 162.492188 37.359375 162.734375 37.507812 163 37.546875 C 163.222656 37.566406 163.445312 37.601562 163.664062 37.648438 C 163.859375 37.691406 163.957031 37.773438 163.957031 37.886719 L 163.957031 38.042969 L 157.972656 38.042969 L 157.972656 37.886719 C 157.972656 37.773438 158.074219 37.691406 158.285156 37.660156 C 158.5 37.628906 158.71875 37.59375 158.972656 37.574219 C 159.253906 37.527344 159.503906 37.367188 159.660156 37.125 C 159.890625 36.769531 160 36.351562 159.976562 35.929688 L 159.976562 23.644531 C 160 23.25 159.898438 22.855469 159.679688 22.523438 C 159.527344 22.296875 159.289062 22.144531 159.015625 22.105469 C 158.796875 22.085938 158.574219 22.050781 158.355469 22.003906 C 158.160156 21.960938 158.0625 21.878906 158.0625 21.761719 L 158.0625 21.582031 L 161.753906 21.152344 L 161.859375 21.253906 L 161.703125 22.957031 L 161.808594 22.984375 C 162.730469 21.773438 164.179688 21.078125 165.703125 21.125 C 167.296875 21.125 168.585938 21.621094 169.574219 22.617188 C 170.5625 23.613281 171.050781 24.976562 171.046875 26.710938 "/>
<path style=" stroke:none;fill-rule:nonzero;fill:rgb(84.705882%,66.666667%,37.647059%);fill-opacity:1;" d="M 176.769531 32.230469 C 177.371094 32.222656 177.960938 32.058594 178.484375 31.757812 C 179.019531 31.472656 179.476562 31.066406 179.824219 30.570312 L 179.824219 26.523438 C 179.507812 26.488281 179.195312 26.472656 178.878906 26.472656 C 177.515625 26.472656 176.519531 26.773438 175.886719 27.375 C 175.238281 28.011719 174.894531 28.898438 174.941406 29.808594 C 174.941406 31.421875 175.550781 32.230469 176.773438 32.230469 M 177.71875 21.125 C 179.246094 21.125 180.332031 21.492188 180.976562 22.230469 C 181.632812 23.007812 181.980469 24.003906 181.945312 25.019531 L 181.945312 30.546875 C 181.945312 31.207031 182.03125 31.636719 182.199219 31.832031 C 182.371094 32.027344 182.777344 32.148438 183.421875 32.148438 L 183.449219 32.402344 C 182.894531 32.648438 182.296875 32.777344 181.691406 32.785156 C 181.226562 32.8125 180.765625 32.6875 180.378906 32.425781 C 180.0625 32.191406 179.898438 31.75 179.882812 31.105469 L 179.765625 31.105469 C 178.738281 32.230469 177.265625 32.851562 175.742188 32.808594 C 174.957031 32.832031 174.191406 32.574219 173.578125 32.082031 C 172.976562 31.585938 172.648438 30.835938 172.6875 30.058594 C 172.671875 29.394531 172.847656 28.738281 173.195312 28.167969 C 173.53125 27.636719 174.007812 27.210938 174.570312 26.933594 C 175.148438 26.640625 175.765625 26.429688 176.402344 26.304688 C 177.074219 26.171875 177.757812 26.109375 178.441406 26.113281 C 178.898438 26.109375 179.359375 26.136719 179.816406 26.191406 L 179.816406 24.535156 C 179.816406 22.496094 179.027344 21.480469 177.449219 21.480469 C 176.613281 21.445312 175.792969 21.707031 175.128906 22.214844 C 175.664062 22.570312 175.964844 23.183594 175.921875 23.820312 C 175.9375 24.171875 175.824219 24.515625 175.605469 24.789062 C 175.355469 25.054688 175 25.195312 174.636719 25.171875 C 174.339844 25.183594 174.050781 25.054688 173.859375 24.828125 C 173.664062 24.597656 173.5625 24.300781 173.566406 24 C 173.566406 23.355469 173.910156 22.714844 174.597656 22.078125 C 175.285156 21.441406 176.324219 21.125 177.71875 21.132812 "/>
<path style=" stroke:none;fill-rule:nonzero;fill:rgb(84.705882%,66.666667%,37.647059%);fill-opacity:1;" d="M 186.898438 30.496094 L 186.898438 23.464844 C 186.925781 23.089844 186.8125 22.714844 186.585938 22.410156 C 186.410156 22.1875 186.15625 22.039062 185.871094 22.003906 C 185.632812 21.980469 185.394531 21.941406 185.15625 21.890625 C 184.945312 21.839844 184.84375 21.753906 184.84375 21.632812 L 184.84375 21.519531 L 188.738281 21.136719 L 188.84375 21.238281 L 188.6875 23.660156 L 188.789062 23.683594 C 189.726562 21.988281 190.839844 21.136719 192.128906 21.136719 C 192.542969 21.128906 192.949219 21.253906 193.285156 21.496094 C 193.566406 21.703125 193.746094 22.019531 193.777344 22.367188 C 193.808594 22.714844 193.691406 23.0625 193.449219 23.316406 C 193.222656 23.527344 192.921875 23.640625 192.609375 23.628906 C 192.1875 23.625 191.789062 23.445312 191.503906 23.132812 C 191.171875 22.800781 190.988281 22.34375 191.007812 21.875 C 190.261719 22.082031 189.597656 22.789062 189.019531 23.988281 L 189.019531 30.632812 C 188.992188 31.003906 189.121094 31.367188 189.378906 31.640625 C 189.589844 31.855469 189.867188 31.988281 190.164062 32.019531 C 190.429688 32.042969 190.695312 32.082031 190.957031 32.132812 C 191.191406 32.183594 191.3125 32.269531 191.3125 32.390625 L 191.3125 32.542969 L 184.914062 32.542969 L 184.914062 32.390625 C 184.914062 32.273438 185.078125 32.199219 185.410156 32.179688 C 185.769531 32.140625 186.113281 32.007812 186.40625 31.792969 C 186.71875 31.5625 186.898438 31.136719 186.898438 30.507812 "/>
<path style=" stroke:none;fill-rule:nonzero;fill:rgb(84.705882%,66.666667%,37.647059%);fill-opacity:1;" d="M 199.503906 21.453125 C 198.621094 21.453125 197.90625 21.890625 197.351562 22.769531 C 196.800781 23.644531 196.472656 24.800781 196.375 26.230469 L 202.203125 26.027344 L 202.203125 25.515625 C 202.203125 24.914062 202.128906 24.316406 201.976562 23.734375 C 201.816406 23.148438 201.519531 22.609375 201.109375 22.160156 C 200.707031 21.695312 200.121094 21.429688 199.503906 21.445312 M 204.519531 26.371094 L 204.292969 26.574219 L 196.347656 26.574219 C 196.3125 28.464844 196.59375 29.921875 197.1875 30.902344 C 197.785156 31.886719 198.78125 32.378906 200.195312 32.378906 C 201.609375 32.375 202.964844 31.816406 203.972656 30.828125 L 204.179688 31.03125 C 203.058594 32.203125 201.496094 32.851562 199.875 32.8125 C 198.058594 32.8125 196.628906 32.273438 195.582031 31.195312 C 194.539062 30.117188 194.011719 28.707031 194.007812 26.957031 C 193.960938 25.414062 194.523438 23.914062 195.570312 22.78125 C 196.605469 21.671875 198.070312 21.070312 199.582031 21.125 C 201.160156 21.125 202.378906 21.601562 203.234375 22.5625 C 204.09375 23.523438 204.554688 24.777344 204.519531 26.066406 Z M 204.519531 26.371094 "/>
<path style=" stroke:none;fill-rule:nonzero;fill:rgb(84.705882%,66.666667%,37.647059%);fill-opacity:1;" d="M 210.125 32.230469 C 210.726562 32.222656 211.320312 32.058594 211.839844 31.757812 C 212.375 31.472656 212.832031 31.066406 213.179688 30.570312 L 213.179688 26.523438 C 212.863281 26.488281 212.550781 26.472656 212.234375 26.472656 C 210.875 26.472656 209.878906 26.773438 209.242188 27.375 C 208.59375 28.015625 208.25 28.898438 208.296875 29.808594 C 208.296875 31.421875 208.910156 32.230469 210.128906 32.230469 M 211.074219 21.125 C 212.601562 21.125 213.6875 21.492188 214.335938 22.230469 C 214.992188 23.007812 215.335938 24.003906 215.300781 25.019531 L 215.300781 30.546875 C 215.300781 31.207031 215.386719 31.636719 215.558594 31.832031 C 215.726562 32.027344 216.132812 32.148438 216.777344 32.148438 L 216.804688 32.402344 C 216.25 32.648438 215.65625 32.777344 215.050781 32.785156 C 214.585938 32.8125 214.121094 32.6875 213.738281 32.425781 C 213.421875 32.191406 213.257812 31.75 213.238281 31.105469 L 213.136719 31.105469 C 212.109375 32.230469 210.640625 32.851562 209.113281 32.808594 C 208.328125 32.832031 207.5625 32.574219 206.949219 32.082031 C 206.351562 31.585938 206.019531 30.835938 206.058594 30.058594 C 206.042969 29.394531 206.21875 28.738281 206.566406 28.167969 C 206.902344 27.636719 207.378906 27.210938 207.945312 26.933594 C 208.523438 26.640625 209.140625 26.429688 209.777344 26.304688 C 210.449219 26.171875 211.128906 26.109375 211.8125 26.113281 C 212.273438 26.109375 212.730469 26.136719 213.1875 26.191406 L 213.1875 24.535156 C 213.1875 22.496094 212.398438 21.480469 210.820312 21.480469 C 209.984375 21.445312 209.167969 21.707031 208.503906 22.214844 C 209.035156 22.570312 209.335938 23.183594 209.292969 23.820312 C 209.304688 24.171875 209.1875 24.519531 208.960938 24.789062 C 208.714844 25.054688 208.359375 25.195312 207.996094 25.171875 C 207.695312 25.183594 207.410156 25.054688 207.21875 24.828125 C 207.019531 24.597656 206.917969 24.300781 206.925781 24 C 206.925781 23.355469 207.269531 22.714844 207.957031 22.078125 C 208.644531 21.441406 209.683594 21.125 211.074219 21.132812 "/>
<path style=" stroke:none;fill-rule:nonzero;fill:rgb(84.705882%,66.666667%,37.647059%);fill-opacity:1;" d="M 229.117188 24.511719 L 229.117188 30.570312 C 229.117188 31.167969 229.289062 31.570312 229.628906 31.78125 C 229.933594 31.984375 230.285156 32.105469 230.648438 32.136719 C 230.984375 32.164062 231.15625 32.246094 231.15625 32.378906 L 231.15625 32.542969 L 225.171875 32.542969 L 225.171875 32.390625 C 225.171875 32.273438 225.269531 32.191406 225.464844 32.148438 C 225.660156 32.101562 225.867188 32.070312 226.09375 32.046875 C 226.359375 31.996094 226.585938 31.832031 226.726562 31.601562 C 226.9375 31.25 227.039062 30.839844 227.015625 30.429688 L 227.015625 24.039062 C 227.058594 23.421875 226.867188 22.808594 226.484375 22.324219 C 226.121094 21.921875 225.597656 21.699219 225.054688 21.722656 C 224.46875 21.734375 223.894531 21.90625 223.398438 22.21875 C 222.882812 22.507812 222.457031 22.933594 222.175781 23.453125 L 222.175781 30.585938 C 222.175781 31.179688 222.335938 31.582031 222.648438 31.792969 C 222.925781 31.992188 223.253906 32.117188 223.59375 32.148438 C 223.910156 32.175781 224.066406 32.257812 224.066406 32.390625 L 224.066406 32.542969 L 218.082031 32.542969 L 218.082031 32.390625 C 218.082031 32.273438 218.1875 32.195312 218.398438 32.160156 C 218.609375 32.125 218.828125 32.097656 219.085938 32.070312 C 219.367188 32.03125 219.617188 31.867188 219.769531 31.625 C 220.003906 31.269531 220.113281 30.851562 220.085938 30.429688 L 220.085938 23.621094 C 220.113281 23.226562 220.011719 22.832031 219.792969 22.5 C 219.644531 22.269531 219.402344 22.117188 219.132812 22.082031 C 218.910156 22.058594 218.6875 22.023438 218.46875 21.976562 C 218.273438 21.9375 218.175781 21.855469 218.175781 21.738281 L 218.175781 21.582031 L 221.96875 21.152344 L 222.074219 21.253906 L 221.917969 23.085938 L 222.023438 23.109375 C 222.816406 21.84375 224.21875 21.089844 225.714844 21.125 C 226.597656 21.089844 227.464844 21.375 228.15625 21.925781 C 228.800781 22.460938 229.125 23.324219 229.125 24.511719 "/>
<path style=" stroke:none;fill-rule:nonzero;fill:rgb(84.705882%,66.666667%,37.647059%);fill-opacity:1;" d="M 148.367188 53.492188 L 149.585938 53.492188 L 149.585938 54.589844 L 149.613281 54.589844 C 150.097656 53.769531 150.984375 53.273438 151.9375 53.285156 C 152.8125 53.234375 153.625 53.730469 153.976562 54.53125 C 154.273438 54.152344 154.632812 53.832031 155.046875 53.585938 C 155.4375 53.382812 155.878906 53.285156 156.320312 53.296875 C 156.949219 53.28125 157.554688 53.519531 158.007812 53.949219 C 158.46875 54.382812 158.703125 55.027344 158.699219 55.882812 L 158.699219 61.191406 L 157.40625 61.191406 L 157.40625 56.207031 C 157.441406 55.734375 157.320312 55.265625 157.066406 54.871094 C 156.796875 54.554688 156.394531 54.390625 155.980469 54.429688 C 155.476562 54.429688 155.003906 54.660156 154.695312 55.058594 C 154.351562 55.460938 154.167969 55.972656 154.171875 56.5 L 154.171875 61.175781 L 152.886719 61.175781 L 152.886719 55.851562 C 152.90625 55.476562 152.792969 55.105469 152.570312 54.804688 C 152.347656 54.542969 152.019531 54.402344 151.675781 54.421875 C 151.101562 54.402344 150.554688 54.660156 150.199219 55.109375 C 149.804688 55.648438 149.609375 56.308594 149.648438 56.972656 L 149.648438 61.15625 L 148.359375 61.15625 Z M 148.367188 53.492188 "/>
<path style=" stroke:none;fill-rule:nonzero;fill:rgb(84.705882%,66.666667%,37.647059%);fill-opacity:1;" d="M 167.410156 56.714844 C 167.34375 55.875 167.125 55.285156 166.753906 54.949219 C 166.34375 54.589844 165.8125 54.402344 165.269531 54.429688 C 164.691406 54.410156 164.132812 54.652344 163.753906 55.085938 C 163.363281 55.539062 163.148438 56.117188 163.144531 56.714844 Z M 168.640625 58.757812 C 168.507812 59.535156 168.09375 60.234375 167.476562 60.726562 C 166.839844 61.191406 166.0625 61.429688 165.273438 61.398438 C 164.308594 61.433594 163.375 61.050781 162.714844 60.34375 C 162.085938 59.648438 161.769531 58.710938 161.769531 57.539062 C 161.769531 56.191406 162.09375 55.140625 162.742188 54.386719 C 163.429688 53.621094 164.425781 53.207031 165.453125 53.261719 C 166.402344 53.21875 167.3125 53.65625 167.878906 54.421875 C 168.457031 55.203125 168.742188 56.308594 168.742188 57.738281 L 163.144531 57.738281 C 163.101562 58.40625 163.296875 59.070312 163.699219 59.605469 C 164.128906 60.066406 164.746094 60.308594 165.375 60.261719 C 165.871094 60.273438 166.351562 60.105469 166.730469 59.785156 C 167.070312 59.539062 167.296875 59.167969 167.359375 58.75 Z M 168.640625 58.757812 "/>
<path style=" stroke:none;fill-rule:nonzero;fill:rgb(84.705882%,66.666667%,37.647059%);fill-opacity:1;" d="M 173.0625 57.300781 C 173.0625 58.253906 173.253906 58.988281 173.632812 59.507812 C 173.976562 59.992188 174.539062 60.277344 175.136719 60.257812 C 175.707031 60.269531 176.253906 60.027344 176.632812 59.601562 C 177.035156 59.160156 177.234375 58.519531 177.234375 57.679688 C 177.234375 56.597656 177.0625 55.785156 176.722656 55.238281 C 176.390625 54.695312 175.785156 54.378906 175.148438 54.417969 C 174.558594 54.386719 173.988281 54.628906 173.601562 55.070312 C 173.234375 55.507812 173.046875 56.246094 173.046875 57.292969 M 178.523438 61.152344 L 177.304688 61.152344 L 177.304688 60.101562 L 177.277344 60.101562 C 176.851562 60.914062 175.992188 61.410156 175.074219 61.378906 C 174.09375 61.417969 173.164062 60.960938 172.601562 60.160156 C 171.992188 59.253906 171.683594 58.183594 171.726562 57.09375 C 171.679688 56.097656 171.988281 55.113281 172.59375 54.324219 C 173.15625 53.617188 174.019531 53.222656 174.921875 53.257812 C 175.867188 53.25 176.742188 53.75 177.214844 54.566406 L 177.242188 54.476562 L 177.242188 50.632812 L 178.53125 50.632812 Z M 178.523438 61.152344 "/>
<path style=" stroke:none;fill-rule:nonzero;fill:rgb(84.705882%,66.666667%,37.647059%);fill-opacity:1;" d="M 186.847656 56.070312 C 186.664062 54.972656 186.054688 54.429688 185.027344 54.429688 C 184.425781 54.414062 183.851562 54.699219 183.5 55.191406 C 183.078125 55.816406 182.871094 56.5625 182.914062 57.316406 C 182.914062 58.304688 183.09375 59.042969 183.453125 59.523438 C 183.820312 60.015625 184.414062 60.292969 185.027344 60.257812 C 185.476562 60.257812 185.90625 60.078125 186.214844 59.753906 C 186.558594 59.390625 186.777344 58.929688 186.847656 58.433594 L 188.105469 58.433594 C 188.035156 59.257812 187.679688 60.03125 187.097656 60.617188 C 186.523438 61.132812 185.769531 61.40625 184.996094 61.375 C 184.058594 61.402344 183.15625 61.027344 182.519531 60.335938 C 181.871094 59.648438 181.550781 58.710938 181.550781 57.523438 C 181.550781 56.226562 181.875 55.191406 182.519531 54.417969 C 183.164062 53.640625 184.066406 53.253906 185.234375 53.257812 C 185.988281 53.21875 186.722656 53.496094 187.265625 54.019531 C 187.789062 54.570312 188.085938 55.296875 188.105469 56.058594 Z M 186.847656 56.070312 "/>
<path style=" stroke:none;fill-rule:nonzero;fill:rgb(84.705882%,66.666667%,37.647059%);fill-opacity:1;" d="M 196.847656 56.714844 C 196.78125 55.875 196.5625 55.285156 196.191406 54.949219 C 195.78125 54.589844 195.25 54.402344 194.707031 54.429688 C 194.128906 54.410156 193.570312 54.652344 193.191406 55.085938 C 192.796875 55.539062 192.574219 56.117188 192.5625 56.714844 Z M 198.082031 58.757812 C 197.945312 59.535156 197.53125 60.234375 196.910156 60.726562 C 196.273438 61.191406 195.496094 61.429688 194.707031 61.398438 C 193.742188 61.433594 192.808594 61.050781 192.148438 60.34375 C 191.519531 59.648438 191.203125 58.710938 191.203125 57.539062 C 191.203125 56.191406 191.53125 55.140625 192.179688 54.386719 C 192.863281 53.621094 193.859375 53.207031 194.886719 53.261719 C 195.839844 53.21875 196.75 53.65625 197.316406 54.421875 C 197.898438 55.199219 198.191406 56.304688 198.1875 57.738281 L 192.578125 57.738281 C 192.535156 58.40625 192.734375 59.070312 193.140625 59.605469 C 193.566406 60.066406 194.183594 60.308594 194.8125 60.261719 C 195.308594 60.273438 195.789062 60.105469 196.167969 59.785156 C 196.507812 59.539062 196.734375 59.167969 196.796875 58.75 Z M 198.082031 58.757812 "/>
<path style=" stroke:none;fill-rule:nonzero;fill:rgb(84.705882%,66.666667%,37.647059%);fill-opacity:1;" d="M 207.480469 61.164062 L 206.222656 61.164062 L 206.222656 56.4375 C 206.222656 55.714844 206.097656 55.195312 205.839844 54.890625 C 205.511719 54.550781 205.050781 54.378906 204.582031 54.425781 C 204.023438 54.417969 203.492188 54.660156 203.132812 55.085938 C 202.714844 55.621094 202.507812 56.292969 202.550781 56.972656 L 202.550781 61.15625 L 201.265625 61.15625 L 201.265625 53.492188 L 202.480469 53.492188 L 202.480469 54.589844 L 202.507812 54.589844 C 203.003906 53.78125 203.878906 53.289062 204.828125 53.28125 C 205.558594 53.195312 206.292969 53.449219 206.816406 53.972656 C 207.339844 54.492188 207.59375 55.222656 207.511719 55.957031 Z M 207.480469 61.164062 "/>
<path style=" stroke:none;fill-rule:nonzero;fill:rgb(84.705882%,66.666667%,37.647059%);fill-opacity:1;" d="M 212.898438 54.558594 L 212.898438 59.550781 C 212.886719 59.714844 212.945312 59.878906 213.058594 60 C 213.226562 60.121094 213.429688 60.175781 213.636719 60.15625 L 214.128906 60.15625 L 214.128906 61.164062 C 213.808594 61.214844 213.488281 61.25 213.164062 61.265625 C 212.734375 61.300781 212.304688 61.160156 211.980469 60.875 C 211.699219 60.519531 211.566406 60.070312 211.609375 59.617188 L 211.609375 54.558594 L 210.570312 54.558594 L 210.570312 53.492188 L 211.609375 53.492188 L 211.609375 51.347656 L 212.898438 51.347656 L 212.898438 53.492188 L 214.128906 53.492188 L 214.128906 54.558594 Z M 212.898438 54.558594 "/>
<path style=" stroke:none;fill-rule:nonzero;fill:rgb(84.705882%,66.666667%,37.647059%);fill-opacity:1;" d="M 222.953125 56.714844 C 222.886719 55.875 222.667969 55.285156 222.296875 54.949219 C 221.890625 54.589844 221.355469 54.402344 220.8125 54.429688 C 220.234375 54.410156 219.679688 54.652344 219.296875 55.085938 C 218.90625 55.539062 218.691406 56.117188 218.6875 56.714844 Z M 224.191406 58.757812 C 224.054688 59.535156 223.640625 60.234375 223.019531 60.726562 C 222.382812 61.191406 221.605469 61.429688 220.816406 61.398438 C 219.851562 61.433594 218.917969 61.050781 218.257812 60.34375 C 217.628906 59.648438 217.3125 58.710938 217.3125 57.539062 C 217.3125 56.191406 217.640625 55.140625 218.289062 54.386719 C 218.972656 53.621094 219.96875 53.207031 220.996094 53.261719 C 221.949219 53.21875 222.859375 53.65625 223.425781 54.421875 C 224.007812 55.199219 224.296875 56.304688 224.300781 57.738281 L 218.6875 57.738281 C 218.644531 58.40625 218.84375 59.070312 219.246094 59.605469 C 219.675781 60.066406 220.292969 60.308594 220.921875 60.261719 C 221.417969 60.273438 221.898438 60.105469 222.273438 59.785156 C 222.613281 59.539062 222.839844 59.167969 222.90625 58.75 Z M 224.191406 58.757812 "/>
<path style=" stroke:none;fill-rule:nonzero;fill:rgb(84.705882%,66.666667%,37.647059%);fill-opacity:1;" d="M 228.820312 61.164062 L 227.527344 61.164062 L 227.527344 53.492188 L 228.746094 53.492188 L 228.746094 54.765625 L 228.773438 54.765625 C 229.332031 53.769531 230.054688 53.265625 230.933594 53.265625 C 231.046875 53.265625 231.160156 53.28125 231.269531 53.3125 L 231.269531 54.648438 L 230.789062 54.648438 C 230.253906 54.632812 229.738281 54.847656 229.371094 55.238281 C 229 55.632812 228.800781 56.160156 228.820312 56.699219 Z M 228.820312 61.164062 "/>
<path style=" stroke:none;fill-rule:nonzero;fill:rgb(84.705882%,66.666667%,37.647059%);fill-opacity:1;" d="M 126.703125 53.722656 C 126.234375 53.921875 125.757812 54.101562 125.316406 54.28125 C 125.429688 54.195312 125.558594 54.128906 125.691406 54.085938 L 125.753906 54.058594 C 126.066406 53.949219 126.382812 53.847656 126.699219 53.722656 "/>
</g>
</svg>
